<svg viewBox="0 0 585 670" fill="none" xmlns="http://www.w3.org/2000/svg">
<path d="M501.688 0.400146H418V84.1002H501.688V0.400146Z" fill="#8A69DF"/>
<path d="M418 0.400146L501.688 84.1002H418V0.400146Z" fill="#6B42D7"/>
<path d="M585.376 0.400146H501.688V84.1002H585.376V0.400146Z" fill="#FAD2D0"/>
<path d="M501.688 84.1002C523.884 84.1002 545.17 75.2818 560.865 59.585C576.559 43.8882 585.376 22.5988 585.376 0.400146H501.688" fill="#EE726D"/>
<path d="M501.688 84.1001H418V167.8H501.688V84.1001Z" fill="#FFFEFE"/>
<path d="M418 84.1001H501.688L418 167.8V84.1001Z" fill="#F9D1CF"/>
<path d="M585.376 84.1001H501.688V167.8H585.376V84.1001Z" fill="#683ED6"/>
<path d="M501.688 167.8C501.688 145.601 510.505 124.312 526.2 108.615C541.894 92.9185 563.181 84.1001 585.376 84.1001V167.8" fill="#E9E3F9"/>
<path d="M251.064 335.2H167.376V418.9H251.064V335.2Z" fill="#693FD6"/>
<path d="M167.376 335.2H251.064V418.9L167.376 335.2Z" fill="#5729D1"/>
<path d="M334.753 335.2H251.064V418.9H334.753V335.2Z" fill="#FEF8F7"/>
<path d="M251.064 418.9C251.064 396.701 259.882 375.412 275.576 359.715C291.271 344.018 312.557 335.2 334.753 335.2V418.9" fill="#653AD5"/>
<path d="M418.441 335.2H334.752V418.9H418.441V335.2Z" fill="#EE716B"/>
<path d="M418.441 335.2H334.752V418.9H418.441V335.2Z" fill="#F39E9A"/>
<path d="M501.688 167.8H418V251.5H501.688V167.8Z" fill="#ED6B66"/>
<path d="M501.688 167.8H418V251.5H501.688V167.8Z" fill="#AA93E8"/>
<path d="M585.376 167.8H501.688V251.5H585.376V167.8Z" fill="#FBDFDE"/>
<path d="M585.376 167.8H501.688V251.5H585.376V167.8Z" fill="#ED6C66"/>
<path d="M251.064 418.9H167.376V502.6H251.064V418.9Z" fill="#F8C6C3"/>
<path d="M251.064 418.9H167.376V502.6H251.064V418.9Z" fill="#FCE3E2"/>
<path d="M334.753 418.9H251.064V502.6H334.753V418.9Z" fill="#D2C5F3"/>
<path d="M251.064 502.6C262.055 502.6 272.937 500.435 283.091 496.229C293.244 492.022 302.47 485.857 310.241 478.085C318.012 470.312 324.177 461.085 328.382 450.93C332.588 440.776 334.753 429.892 334.753 418.9H251.064" fill="#AA92E8"/>
<path d="M418.441 418.9H334.752V502.6H418.441V418.9Z" fill="#EC625C" fill-opacity="0.5"/>
<path d="M334.752 418.9H418.441L334.752 502.6V418.9Z" fill="#6135D4"/>
<path d="M501.688 251.5H418V335.2H501.688V251.5Z" fill="#CDC0F2"/>
<path d="M418 251.5C440.195 251.5 461.482 260.318 477.176 276.015C492.871 291.712 501.688 313.001 501.688 335.2H418" fill="#9D82E4"/>
<path d="M585.376 251.5H501.688V335.2H585.376V251.5Z" fill="#F0847F"/>
<path d="M501.688 251.5C501.688 262.492 503.853 273.376 508.059 283.531C512.264 293.686 518.429 302.913 526.2 310.685C533.971 318.457 543.197 324.622 553.35 328.829C563.504 333.035 574.386 335.2 585.376 335.2V251.5" fill="#BFADED"/>
<path d="M83.6881 502.6H0V586.3H83.6881V502.6Z" fill="#F9CFCD"/>
<path d="M0 502.6C22.1955 502.6 43.4819 511.419 59.1764 527.115C74.871 542.812 83.6881 564.101 83.6881 586.3L0 502.6C0 524.799 8.81712 546.088 24.5117 561.785C40.2063 577.482 61.4927 586.3 83.6881 586.3" fill="#FDF0F0"/>
<path d="M167.376 502.6H83.6882V586.3H167.376V502.6Z" fill="#F9CECC"/>
<path d="M167.376 502.6H83.6882V586.3H167.376V502.6Z" fill="#AF99E9"/>
<path d="M251.064 502.6H167.376V586.3H251.064V502.6Z" fill="#FDEBEA"/>
<path d="M251.064 502.6H167.376V586.3H251.064V502.6Z" fill="#A68DE7"/>
<path d="M334.753 502.6H251.064V586.3H334.753V502.6Z" fill="#7F5CDC"/>
<path d="M251.064 502.6H334.753V586.3L251.064 502.6Z" fill="#A288E6"/>
<path d="M418.441 502.6H334.752V586.3H418.441V502.6Z" fill="#8360DD"/>
<path d="M334.752 502.6L418.441 586.3H334.752V502.6Z" fill="#AC95E8"/>
<path d="M501.688 335.2H418V418.9H501.688V335.2Z" fill="#997CE3"/>
<path d="M418 418.9C418 396.702 426.817 375.412 442.512 359.715C458.206 344.019 479.493 335.2 501.688 335.2L418 418.9C440.195 418.9 461.482 410.082 477.176 394.385C492.871 378.688 501.688 357.399 501.688 335.2" fill="#FEF8F8"/>
<path d="M585.376 335.2H501.688V418.9H585.376V335.2Z" fill="#6A41D7"/>
<path d="M585.376 335.2V418.9H501.688L585.376 335.2Z" fill="#FAF8FE"/>
<path d="M167.376 586.3H83.6882V670H167.376V586.3Z" fill="#EC625C" fill-opacity="0.5"/>
<path d="M167.376 586.3H83.6882V670H167.376V586.3Z" fill="#AA92E8"/>
<path d="M251.064 586.3H167.376V670H251.064V586.3Z" fill="#FEF7F7"/>
<path d="M251.064 586.3H167.376V670H251.064V586.3Z" fill="#F2918D"/>
<path d="M334.753 586.3H251.064V670H334.753V586.3Z" fill="#7751DA"/>
<path d="M334.753 586.3H251.064V670H334.753V586.3Z" fill="#5E31D3" fill-opacity="0.5"/>
<path d="M418.441 586.3H334.752V670H418.441V586.3Z" fill="#FDF2F1"/>
<path d="M334.752 586.3C356.948 586.3 378.234 595.118 393.929 610.815C409.623 626.512 418.441 647.801 418.441 670L334.752 586.3C334.752 597.292 336.917 608.176 341.123 618.331C345.329 628.486 351.493 637.713 359.264 645.485C367.035 653.257 376.261 659.422 386.415 663.629C396.568 667.835 407.45 670 418.441 670" fill="#C5B5EF"/>
<path d="M501.688 418.9H418V502.6H501.688V418.9Z" fill="#F9D1CF"/>
<path d="M501.688 418.9V502.6H418L501.688 418.9Z" fill="#805DDD"/>
<path d="M585.376 418.9H501.688V502.6H585.376V418.9Z" fill="#C1B0EE"/>
<path d="M501.688 418.9C523.884 418.9 545.17 427.718 560.865 443.415C576.559 459.112 585.376 480.402 585.376 502.6L501.688 418.9C501.688 429.892 503.853 440.776 508.059 450.931C512.264 461.086 518.429 470.313 526.2 478.085C533.971 485.857 543.197 492.023 553.35 496.229C563.504 500.435 574.386 502.6 585.376 502.6" fill="#D7CCF4"/>
</svg>
